<?xml version="1.0" encoding="UTF-8"?>
<svg id="a" data-name="Layer 1" xmlns="http://www.w3.org/2000/svg" viewBox="0 0 463.54 59.59">
  <defs>
    <style>
      .i {
        fill: #016945;
      }

      .i, .j, .k {
        stroke-width: 0px;
      }

      .j {
        fill: #243746;
      }

      .k {
        fill: #d90d2c;
      }
    </style>
  </defs>
  <path id="b" data-name="SVGID" class="k" d="M17.76.02S9.54-.42,4.51,4.6C2.01,7.17.43,10.5.01,14.08v.66c0,3.18,4.49,4.53,7.4,2.62,3.92-2.66,3.56-6.18,9.3-6.58,5.91-.37,8.62,4.82,8.62,9.85s-2.71,10.22-8.62,9.86c-5.91-.36-5.38-3.95-9.35-6.58-2.83-1.88-7.2-.54-7.36,2.41.08-.62,1.29-1.56,2.39-1.76,5.26-.85,5.45,3.44,8.57,6.66,3.27,3.17,7.64,4.93,12.17,4.9,8.09-.12,12.23-8.01,12.23-15.45h0C35.36,12.78,30.95.57,17.76.07V.02h0ZM175.56,16.22c.95-3.61,4.23-6.09,7.93-5.97,4.32.08,5.37,2.86,5.45,5.97h-13.38ZM183.52,1.09c-14.27,0-18.66,11.4-18.66,19.28s4.41,19.37,18.66,19.37c5.1,0,9.09-1.71,13.25-4.98.56-.46.67-1.28.24-1.87l-3.44-4.75c-.2-.28-.5-.47-.83-.52s-.68.03-.95.24c-2.45,1.66-5.33,2.58-8.28,2.66-4.86,0-7.61-3.84-8.22-8.3h22.09c.34.01.68-.11.93-.35.25-.24.4-.57.4-.92.15-1.21.23-2.42.23-3.64.02-9.8-5.52-16.22-15.42-16.22h0ZM51.37,16.22c.95-3.61,4.23-6.09,7.93-5.97,4.32.08,5.38,2.86,5.45,5.97h-13.38ZM59.31,1.14c-14.27,0-18.65,11.4-18.65,19.28s4.4,19.37,18.65,19.37c5.1,0,9.1-1.71,13.25-4.98.56-.46.67-1.28.24-1.87l-3.47-4.8c-.2-.28-.5-.47-.83-.52-.34-.05-.68.03-.95.24-2.46,1.66-5.33,2.58-8.29,2.66-4.85,0-7.61-3.84-8.22-8.3h22.13c.34.01.68-.11.93-.35s.4-.57.4-.92c.16-1.2.24-2.42.24-3.64,0-9.8-5.51-16.22-15.45-16.22v.05h.02ZM228.37,1.53c-1.64-.23-3.28-.35-4.93-.36-3.38-.06-6.71.9-9.54,2.77l-.47-1.11c-.27-.72-.94-1.2-1.7-1.23h-4.32c-.67.02-1.22.55-1.25,1.23v35.16c.02.69.57,1.25,1.25,1.27h7.52c.67-.04,1.19-.59,1.21-1.27V13.63c1.42-2.41,3.72-3.09,6.12-3.09,1.06.03,2.11.12,3.15.29.73.1,1.42-.33,1.66-1.03l2.18-6.95c.06-.3-.01-.62-.18-.87-.17-.25-.44-.43-.75-.48l.05.03h0ZM141.36.02s-8.22-.44-13.25,4.58c-2.52,2.56-4.13,5.89-4.57,9.48v.66c0,3.18,4.49,4.53,7.4,2.62,3.92-2.66,3.56-6.18,9.31-6.58s8.6,4.82,8.6,9.85-2.71,10.22-8.61,9.86c-5.9-.36-5.34-3.92-9.31-6.58-2.87-1.93-7.4-.49-7.4,2.62v24.11s-.68,8.95,9.18,8.95c.68,0,.93-.62.93-1.27v-19.42c2.53,1.03,5.25,1.46,7.97,1.27,13.75-.45,17.33-11.4,17.33-19.57S154.57.5,141.39,0l-.03.02h0ZM99.13.02s-8.16-.44-13.25,4.58c-2.53,2.56-4.14,5.89-4.58,9.48v.66c0,3.18,4.5,4.53,7.4,2.62,3.92-2.66,3.57-6.18,9.31-6.58,5.91-.37,8.61,4.82,8.61,9.85s-2.7,10.22-8.61,9.86c-5.91-.36-5.33-3.95-9.3-6.58-2.86-1.93-7.4-.46-7.4,2.63v24.1s-.68,8.95,9.18,8.95c.69,0,.93-.62.93-1.27v-19.42c2.53,1.03,5.25,1.46,7.97,1.27,13.75-.45,17.33-11.4,17.33-19.57S112.36.5,99.17,0l-.04.02h0Z"/>
  <path id="c" data-name="SVGID" class="j" d="M240.93,38.41c-.01.63-.51,1.13-1.12,1.14h-3.96c-.62-.01-1.11-.52-1.12-1.14V2.66c.01-.63.51-1.13,1.12-1.14h1.02c.66.01,1.25.42,1.5,1.04l1.12,3.65c3.25-3.31,7.64-5.22,12.24-5.32,6.21,0,9.8,2.21,12.12,5.63,4.25-4.26,8.36-5.63,12.48-5.63,13.68,0,14.35,10.49,14.35,19.02v18.51c-.02.62-.51,1.13-1.12,1.14h-3.97c-.61-.02-1.11-.52-1.12-1.14v-20.31c0-4.03-.07-11.34-8.44-11.94-4.26-.22-8.3,1.93-10.54,5.63.41,2.69.59,5.41.52,8.14v18.49c-.01.63-.51,1.13-1.12,1.14h-3.89c-.61-.02-1.11-.52-1.12-1.14v-19.93c-.22-3.81.15-11.56-8.44-12.18-4.27-.04-8.25,2.19-10.5,5.88v26.21h0Z"/>
  <path id="d" data-name="SVGID" class="j" d="M330.54,20.43c0-3.71-1.48-14.24-12.35-14.24s-12.28,10.53-12.28,14.24,1.56,14.23,12.28,14.23,12.35-10.52,12.35-14.23h0ZM336.62,20.43c-.01,8.17-4.22,19.58-18.43,19.58s-18.42-11.41-18.42-19.58,4.3-19.54,18.42-19.54,18.42,11.58,18.42,19.54h.01Z"/>
  <path id="e" data-name="SVGID" class="j" d="M353.23,38.42c-.01.62-.5,1.12-1.12,1.13h-3.91c-.61-.01-1.1-.51-1.12-1.13V3.1c.02-.62.51-1.11,1.12-1.12h.95c.66,0,1.24.41,1.48,1.03l1.12,3.61c3.15-3.41,7.56-5.32,12.16-5.27,13.62,0,15.47,10.01,15.47,18.81v18.26c-.01.62-.5,1.12-1.1,1.13h-4c-.61-.02-1.09-.52-1.1-1.13v-18.2c0-3.99.22-13.17-9.62-13.17-4.09.23-7.86,2.3-10.29,5.65v25.77l-.04-.05h0Z"/>
  <path id="f" data-name="SVGID" class="j" d="M393.41,16.93h21c.6-4.68-1.26-10.34-8.95-10.72-8.1,0-11.02,5.81-12.05,10.72h0ZM419.22,33.38c.36.52.3,1.23-.15,1.66-3.72,3.37-8.57,5.15-13.53,4.95-14.18,0-18.42-11.46-18.42-19.64s4.22-19.47,18.42-19.47c9.54,0,14.79,6.34,14.79,15.92,0,1.16-.07,2.32-.21,3.47-.07.65-.63,1.13-1.27,1.11h-25.59c.22,4.84,3.18,13.28,12.28,13.28,3.78.02,7.45-1.26,10.43-3.62.22-.2.51-.3.81-.27.29.03.56.18.74.42l1.7,2.19h0s0,0,0,0Z"/>
  <path id="g" data-name="SVGID" class="j" d="M445.15,31.39l11.33-28.56c.29-.61.89-1.01,1.56-1.03h4.77c.25,0,.47.13.61.33.14.21.16.47.06.7l-21.43,51.16c-.26.63-.88,1.04-1.56,1.03h-4.33c-.25,0-.48-.13-.61-.33-.13-.21-.15-.47-.05-.7l6.41-15.29-15.15-35.86c-.1-.23-.08-.49.05-.7.13-.21.36-.33.61-.33h4.47c.67.02,1.28.42,1.57,1.03l11.69,28.55h0Z"/>
  <path id="h" data-name="SVGID" class="i" d="M23.21,35.66c-4.49.05-8.82-1.69-12.05-4.86-3.06-3.25-3.48-7.59-8.75-6.73-1.08.25-1.97,1.03-2.39,2.07v24.42s-.68,9,9.19,9c.69,0,.94-.62.94-1.27v-19.52c2.53,1.04,5.26,1.47,7.98,1.27,13.74-.46,17.36-11.39,17.36-19.6-.21,7.38-4.09,15.03-12.26,15.16l-.02.06h0Z"/>
</svg>