<svg xmlns="http://www.w3.org/2000/svg" viewBox="0 0 816.44 348.34"><path fill="#ec0733" d="M683.37 199.83c12.93 7.16 19.79-5.82 21.45-8.18 1.37-2.08 1.02-3.58.26-5.29-8.94-16.2-14.52-32.41-17.99-50.72-.09-.41-.16-.83-.28-1.47h7.58c1.46 0 3.01.02 4.55.02 1.89 0 2.36.52 2.72 2.18 2.09 13.74 5.2 25.35 11.89 37.08.11.24.31.7.44.7.23.02.37-.35.52-.77 4.22-10 8.32-23.75 11.27-37.17.33-1.53.87-2.1 2.54-2.03h12.14c-19.31 81.61-43.93 81.5-55.94 78.36-2.83-.74-2.8-1.07-2.36-3.95.43-2.86.78-5.73 1.19-8.76m-231.89-27.74c1.01 3.67 1.98 7.06 2.86 10.48.08.33-.37.96-.74 1.22-6.07 4.22-14.72 5.61-21.95 4.74-13.55-1.62-20.56-12.28-21.38-24.12-.46-6.76.34-13.29 3.83-19.25 4.02-6.86 10.06-10.67 17.78-11.81 5.89-.87 13.4-.06 18.64 2.95.65.37 1.26.81 1.92 1.24-1.01 3.65-2 7.19-2.86 10.31-2.62-1.21-5.51-2.31-8.32-2.73-8.16-1.2-15.01 4.01-16.47 10.32-.99 4.35-.87 8.67.7 12.87 2.41 6.45 10.35 9.52 17.57 8.1 3.11-.61 5.77-2.08 8.4-4.33m145.66-62.77c4.54-.52 9.02-1.03 13.73-1.57v60.37c0 1.25.05 2.51.13 3.76.26 4 2.72 5.83 6.64 4.9.78-.19 1.53-.52 2.55-.87.5 3.55.99 7.07 1.52 10.77-5.89 2.23-11.74 3.25-17.64.47-4.09-1.93-5.9-5.62-6.6-9.9-.29-1.77-.39-3.58-.39-5.38-.03-20.31-.02-40.62-.02-60.93 0-.49.04-.97.07-1.62m-288.13 78.34h-13.7v-53.47h9.76c.68 0 1 .65 1.07 1.03.33 1.69.57 3.4.81 4.88 1.02-1.17 5.79-8.72 17.02-6.45.99.29 1.33.74 1.19 1.86-.37 3.09-.95 10.23-1.02 10.78-6.69-2.94-15.11 2.01-15.11 7.49v33.88m225.62-35.29c-1-5.58-3.3-10.51-7.66-14.23-8.09-6.91-20.47-6.81-28.91.14-.41.33-.82.67-1.37 1.11-.2-1.31-.41-2.73-.69-4.16-.07-.38-.38-1.02-1.07-1.02 0 0-7.18-.02-9.76-.02v79.78c4.57-.49 9.01-.97 13.67-1.46v-23.77c22.91 0 30.5-8.74 33.94-16.79 2.69-6.29 3.04-12.88 1.84-19.57m-14.56 14.36c-2.42 6.82-7.83 9.54-14.55 10.12-2.14.19-4.32.03-6.74.03v-1.89c0-7.91.03-15.83-.03-23.74-.02-1.28.4-2.14 1.3-2.97 4.63-4.28 10.95-5.03 15.64-1.8 2.43 1.68 3.87 4.09 4.66 6.88 1.27 4.47 1.28 8.99-.27 13.36m-117.17-4.53c-.03-3.76.06-7.55-.37-11.28-.79-6.95-3.89-12.71-10.43-15.71-7.79-3.58-15.47-2.94-22.68 1.89-.88.59-1.7 1.28-2.46 1.87-.31-.95-.85-3.51-.89-3.75-.07-.38-.38-1.02-1.07-1.02h-9.75v53.46h13.65v-33.88s-.51-6.28 5.94-8.51c3.9-1.35 7.62-1.12 10.78 1.78 2.37 2.18 3.3 5.12 3.32 8.27.08 10.1 0 32.34 0 32.34h13.98c0-.66.04-17.6-.01-25.47m59.2-27.92h13.63v53.3h-13.63zm179.76 53.36h-13.52v-53.33h13.52zm-297.12.02h-13.6v-53.32h13.6zm282.55-69.36c.02-4.41 3.38-7.81 7.72-7.81 4.54 0 7.92 3.39 7.9 7.92s-3.39 7.81-8.02 7.78c-4.35-.03-7.61-3.41-7.59-7.89m-158.35 7.9c-4.45.01-7.89-3.37-7.91-7.8-.04-4.37 3.45-7.88 7.84-7.9 4.41-.02 7.88 3.41 7.91 7.82.03 4.4-3.41 7.86-7.83 7.87m-131.07.01c-4.46-.01-7.83-3.41-7.8-7.87.03-4.45 3.44-7.85 7.86-7.83s7.82 3.45 7.81 7.89c-.02 4.45-3.41 7.81-7.88 7.8m342.95 47.91c-1.32.69-2.51 1.49-3.83 1.94-1.36.46-2.84.76-4.27.81-4.04.14-6.42-1.98-6.91-5.99-.13-1.03-.22-2.06-.22-3.1-.02-6.98-.01-13.98 0-20.97 0-.52.05-1.05.08-1.72h11.95c1.09-3.39 1.7-6.14 2.79-10.87h-14.85v-19.11c-4.63.46-9.12.9-13.71 1.35 0 4.33-.07 47.63.12 55.98.13 5.43 1.75 10.32 6.5 13.6 6.19 4.26 17.82 3.19 23.41-.53.34-.23.6-.92.53-1.35-.47-3.34-1.04-6.67-1.58-10.02m-95.8-2.48v-.66c-.1-6.93.03-14.17-.05-21.14-.09-7.63-3.96-12.77-11.35-15.24-5.79-1.93-11.72-1.85-17.66-.83-5.4.94-9.86 2.69-14.37 5.93.97 3.54 1.91 6.98 2.89 10.56.66-.42 1.16-.73 1.64-1.05 5.22-3.46 10.37-4.92 16.69-4.56 7.1.42 9.24 4.26 8.11 11.16-3.46 0-6.86-.1-10.26.02-5.03.18-9.89 1.16-14.21 3.97-8.91 5.79-8.9 20.29.06 25.99 5.21 3.32 10.93 3.48 16.78 2.38 3.91-.75 7.29-2.62 10.24-5.34.71.84 1.31 1.61 1.98 2.31 4.16 4.32 12.2 3.95 16.68 1.89l-1.55-10.42c-3.71 1.43-5.6-.24-5.6-4.98m-13.93 1.06c-.03.53-.32 1.16-.7 1.53-3.57 3.51-7.89 4.56-12.69 3.55-2.45-.52-3.91-2.34-4.08-4.67-.17-2.32 1.13-5.67 3.61-6.62 3.2-1.23 6.54-1.27 9.9-1.02 1.28.1 2.55.35 3.98.55 0 1.93.05 5.01-.03 6.69m-293.91-54.34c-6.39-3.97-13.57-5.41-20.94-5.62 0 0-11.45-.06-17.18-.02-1.5 0-1.88.76-1.88 2.23.05 23.65 0 72.11 0 72.72h14.5v-21.88h2.15c5.5-.12 10.91-.86 16.1-2.72 9.49-3.42 16.24-9.43 18.12-19.91 1.86-10.32-1.99-19.3-10.86-24.8m-11.66 33.32c-2.31 1.05-4.69 1.46-7.13 1.7-3.76.35-6.41-.54-6.69-.65v-27.87c6.57-.31 13.12-.03 18.21 4.82 6.67 6.34 4.24 18.08-4.39 22m-15.74 94.61c2.91-.81 5.89-3.08 5.89-7.13 0-4.9-4.59-7.94-12.62-7.94-1.84 0-3.7.09-5.84.22v30.95c1.73.09 3.48.22 5.47.22 9.23 0 14.45-3.35 14.45-9.05 0-4.1-3.39-6.59-7.36-7.26m-8.83-11.83c.89-.03 1.7-.03 2.46-.03 5.22 0 8.33 1.92 8.33 5.13 0 3.43-2.94 5.48-7.89 5.48h-2.9zm2.76 24.93c-.93 0-1.83 0-2.76-.08v-11.1h2.99c5.84 0 9.27 2.01 9.27 5.44 0 3.66-3.53 5.74-9.5 5.74m33.68-2.54c-1.46 1.78-3.38 2.81-5.48 2.81-2.91 0-5.4-1.79-5.4-6.28v-13.12h-3.75v13.6c0 6.11 3.75 8.92 8.34 8.92 2.63 0 5.09-1.11 6.87-2.99l.22 2.58h2.94v-22.12h-3.76v16.59zm10.88-16.59v22.12h3.75v-22.12zm1.88-9.91c-1.6 0-2.82 1.23-2.82 2.77s1.21 2.8 2.82 2.8 2.76-1.22 2.76-2.8-1.21-2.77-2.76-2.77m15.07 29.26c-1.47 0-2.36-1.03-2.36-2.98v-27.39l-3.75.49v27.3c0 3.84 1.96 5.75 5.08 5.75 1.34 0 2.68-.31 3.75-.89l-.5-2.95c-.71.44-1.33.67-2.22.67m20.74-19.71c-.72 0-1.37-.03-2-.03-9.01 0-13.69 4.94-13.69 12.25 0 6.38 3.66 10.66 9.14 10.66 2.67 0 5.12-.94 7.08-2.99l.28 2.58h2.89v-33.13l-3.7.48v10.17zm0 16.95c-1.43 1.73-3.43 2.81-5.71 2.81-3.88 0-6.2-3.08-6.2-7.76 0-5.18 2.94-8.83 9.55-8.83.71 0 1.51 0 2.36.04zm10.84-16.59v22.12h3.73v-22.12zm1.86-9.91c-1.6 0-2.8 1.23-2.8 2.77s1.2 2.8 2.8 2.8 2.77-1.22 2.77-2.8-1.21-2.77-2.77-2.77m19.01 9.52c-2.72 0-5.09 1.11-6.87 2.98l-.23-2.58h-2.94v22.12h3.75v-16.63c1.43-1.75 3.38-2.76 5.44-2.76 2.91 0 5.4 1.77 5.4 6.28v13.11h3.74v-13.61c0-6.06-3.74-8.9-8.29-8.9m22.6-.01c-4.64 0-8.51 2.75-8.51 7.7 0 2.86 1.33 4.96 3.38 6.16-.89.98-1.43 2.14-1.43 3.48s.62 2.51 1.65 3.17c-2.99.85-4.81 3.13-4.81 6.07 0 4.28 3.78 6.87 9.72 6.87 6.38 0 10.35-2.86 10.35-7.41 0-3.88-3.08-6.23-7.94-6.23h-2.54c-1.79 0-2.95-1.12-2.95-2.55 0-.89.35-1.65.99-2.37.57.19 1.2.28 1.82.28 4.73 0 8.53-2.81 8.53-7.68 0-1.7-.59-3.03-1.47-4.05h3.66v-3.04h-7.54c-.94-.27-1.88-.39-2.9-.39m-1.02 22.77h2.98c2.9 0 4.74 1.34 4.74 3.48 0 2.54-2.51 4.19-6.48 4.19s-6.32-1.57-6.32-4.05c0-2.23 1.78-3.62 5.09-3.62m5.7-15.11c0 2.81-2.32 4.54-4.77 4.54-2.59 0-4.9-1.73-4.9-4.63s2.31-4.59 4.77-4.59 4.9 1.79 4.9 4.68m26.32-8.57c0-2.91 2.42-4.64 5.58-4.64 2.23 0 4.37.71 6.43 2.09l1.01-3.12c-2.18-1.47-4.58-2.28-7.45-2.28-5.48 0-9.5 3.09-9.5 8.34 0 9.77 14.28 7.89 14.28 15.2 0 3.08-2.51 4.91-6.03 4.91-2.49 0-4.98-.9-7.08-2.37l-.98 3.22c2.14 1.55 4.9 2.44 8.02 2.44 5.71 0 9.99-3.22 9.99-8.6 0-10-14.27-8.12-14.27-15.2m29.18.91c-6.07 0-11.11 4.23-11.11 11.58s5.04 11.33 10.88 11.33 11.06-4.23 11.06-11.59-5.03-11.32-10.82-11.32m-.04 19.75c-3.89 0-7.28-2.86-7.28-8.38 0-5.18 3.39-8.2 7.1-8.2 3.93 0 7.27 2.91 7.27 8.38 0 5.17-3.34 8.21-7.08 8.21m25.47-.12c-4.19 0-6.87-3.21-6.87-8.28 0-5.45 3.26-8.16 6.83-8.16 1.79 0 3.43.56 4.95 1.82l.94-2.95c-1.74-1.33-3.74-2.08-6.19-2.08-5.54 0-10.31 3.96-10.31 11.58 0 6.96 4.06 11.33 10.02 11.33 3.04 0 5.49-.98 7.49-2.67l-.93-2.99c-1.68 1.61-3.47 2.4-5.93 2.4m14.01-29.16c-1.6 0-2.8 1.23-2.8 2.77s1.2 2.8 2.8 2.8 2.76-1.22 2.76-2.8-1.2-2.77-2.76-2.77m-1.87 9.91v22.12h3.75v-22.12zm20.19 19.35c-4.45 0-7.13-2.94-7.35-7.54v-.39h14.58c.04-.54.09-1.08.09-1.65 0-6.26-3.47-10.16-8.69-10.16-5.66 0-9.73 4.54-9.73 11.58s4.15 11.33 10.66 11.33c3.22 0 5.89-.98 8.12-2.72l-.88-2.95c-2.01 1.65-4.1 2.5-6.79 2.5m-1.47-16.68c3.08 0 5.1 2.5 5.13 5.97h-10.87c.57-3.75 2.76-5.97 5.74-5.97m21.83 16.63c-2.27 0-3.52-1.29-3.52-3.87v-12.4h7.22v-3.04h-7.22v-6.87l-3.7.39v6.48h-3.56v3.04h3.56v12.79c0 4.47 2.31 6.69 6.38 6.69 1.95 0 3.96-.58 5.48-1.79l-.57-2.99c-1.25 1.07-2.59 1.56-4.07 1.56m24.06-19.29c-1.36 6.02-3.17 12.45-5.76 18.68-2.63-6.02-5.18-12.53-6.65-18.68h-3.84c1.79 7.09 4.59 14.22 8.35 22.47-2.1 4.41-4.91 7.28-7.98 7.28-.98 0-1.89-.27-2.68-.76l-.49 3.11c.85.49 2.05.81 3.3.81 4.86 0 8.92-4.19 12.22-11.15 3.04-6.27 5.54-14.41 7.24-21.76h-3.7zM190.9 102.43s-.75-.05-1.18.11c-.57.22-.3 1.3-.3 1.3s1.81 8.92-5.84 22.43l.01.03c4.63 7.73 7.23 15.92 8.38 24.06 6.1-6.84 8.53-12.51 8.53-12.51l.08-.16c16.49-30.79-8.2-35.25-9.69-35.27m-10.92 29.53c-.58.81-1.15 1.63-1.8 2.47-.68.87-1.4 1.73-2.15 2.58 3.35 7.02 5.03 14.87 5.39 22.86 1.91-1.38 3.65-2.8 5.25-4.21v-.07s-.48-11.29-6.69-23.64"/><path fill="#ec0733" d="M194.74 79.27c-10.84-5.53-21.13-5.32-32.48-1.73-6.28 1.99-11.74 4.88-16.7 9.25-1.01.89-1.97 1.81-2.91 2.74-.41.41-.81.83-1.2 1.24-.48.5-.96 1-1.42 1.51-.52.57-1.02 1.14-1.51 1.72-.28.33-.55.66-.82.99-3.95 4.82-7.24 10.06-9.92 15.63a85 85 0 0 0-2.21 4.99c-.35.86-.69 1.73-1.01 2.6-.14.37-.25.75-.41 1.11-.64 1.53-1.1 3.23-1.59 4.85-.45 1.5-.87 3.01-1.25 4.54-.11.43-.21.87-.32 1.31-.26 1.1-.51 2.19-.74 3.3l-.3 1.49c-.2 1.06-.39 2.13-.57 3.2-.09.52-.18 1.03-.26 1.55-.17 1.11-.32 2.22-.46 3.33-.06.47-.13.94-.18 1.4-.18 1.57-.33 3.13-.46 4.7-.16 1.95-.21 3.93-.31 5.95-28.62-3.26-34.19-18.69-34.19-18.69-2.86-6.94-2.12-12.63-.85-16.39.07-.33.19-.98-.09-.97-.3 0-.62.62-.73.85-10.54 25.35 13.96 37.64 35.58 40.65-.04 1.77.01 3.53.02 5.3-13.48-1.6-41.27-8.21-41.15-35.37-.02-.31-.09-.65-.28-.6-.24.06-.41.53-.49.83-.21.95-.37 1.96-.46 3.03-1.11 12.7 5.77 33.26 42.28 38.72.05 0 .11.01.16.03.03.71.08 1.43.14 2.19.17 1.9.42 3.7.77 5.57.21 1.18.46 2.35.74 3.52.47 1.95 1.07 3.94 1.75 5.83.49 1.39 1.03 2.77 1.63 4.12.47 1.08.99 2.14 1.53 3.17.67 1.27 1.43 2.56 2.23 3.78 1.2 1.84 2.63 3.45 4.07 5.12.39.44.68.87 1.12 1.26.56.49 1.11 1.01 1.65 1.52 0 0 7.98 7.39 17.64-1.23.89-.8 1.1-.99 1.45-1.4 0 0 1.65-1.9 1.08-2.45-1.21-1.16-2.45-2.21-3.54-3.5-1.11-1.31-2.14-2.69-3.12-4.09a46 46 0 0 1-3.46-5.77c-2.61-5.12-4.28-10.69-5.04-16.37 15.83-.48 28.02-4.61 37.24-9.88-.11-6.69-1.11-14.47-4.06-22.04-7.9 6.9-18.85 12.22-33.35 13.46.06-1.31.13-2.65.22-4.01v-.09c.09-1.27.2-2.58.33-3.91.02-.22.04-.45.07-.67.14-1.34.31-2.71.52-4.14.2-1.34.44-2.73.72-4.13.06-.28.11-.56.17-.84.29-1.4.61-2.84.99-4.3.06-.24.14-.5.2-.74.36-1.35.76-2.73 1.22-4.14.07-.25.15-.49.23-.74.5-1.54 1.07-3.12 1.7-4.73.14-.35.28-.72.42-1.07.67-1.68 1.39-3.38 2.2-5.14.06-.13.13-.24.18-.37.95-2.01 2.02-3.87 3.18-5.61.98-1.48 2.03-2.85 3.14-4.14 1.26-1.47 2.59-2.83 3.98-4.05 1.14-1.01 2.31-1.92 3.51-2.78.13-.09.27-.18.4-.27 1.06-.74 2.14-1.41 3.24-2.03.17-.09.34-.2.51-.29 2.41-1.33 4.89-2.38 7.37-3.18.25-.08.5-.16.76-.23 1.07-.33 2.13-.61 3.19-.83l.5-.12c1.2-.25 2.38-.43 3.55-.57.24-.03.48-.04.73-.06.92-.09 1.83-.14 2.72-.16.31 0 .61-.01.91-.01 1.09 0 2.16.05 3.19.15 2.48.26 4.79.83 6.9 1.68 1.02.42 1.99.9 2.92 1.45.03.02.07.03.1.05 4.67 2.73 8.09 7.39 9.71 12.51.2.63.34 1.34.7 1.89.24.35.62.66.66.02.68-10.41-4.67-25.38-14.29-30.3"/><path fill="#00614e" d="M173.6 181.95c-7.5 32.94-24.53 34.99-30.18 34.96-1.84-.02-3.33-.33-4.39-.63-.33-.08-.52-.05-.57.05-.11.25.16.55.51.79 5.16 3.32 11.98 2.03 11.98 2.03 21.58-2.45 40.14-50.6 25.07-82.14-6.58-13.77-15.82-21.94-25.7-26.47-1.16 1.74-2.23 3.6-3.18 5.61 38.55 18.11 26.46 65.8 26.46 65.8m-83.93-61.01c-.32.5-.51.94-.26 1 .16.04.39-.12.57-.29 2.71-2.99 11.41-10.13 33.43-11.05 1.59-.07 3.01-.04 4.37.02a85 85 0 0 1 2.37-4.53c-.07.13-1.79-.04-2-.05h-2.14c-4.38.06-8.76.47-13.05 1.35-4.68.96-9.29 2.5-13.45 4.87-2.13 1.22-4.14 2.65-5.95 4.31-.93.85-1.81 1.75-2.63 2.71-.09.11-.8.96-1.25 1.66m9.17-12.73c-.19.22-.6.72-.37.84.03.02.07.02.1.02 4.4-2.69 17.3-9.38 34.59-7.96.9-1.36 1.83-2.69 2.82-3.99-23.74-1.23-35.18 9.11-37.15 11.09"/><path fill="#00614e" d="M153.47 106.4c31.73 14.17 33.19 49.19 33.19 49.19s2.44 30.4-13.53 52.76c-5.9 8.27-9.62 9.88-12.62 11.55 0 0-.8.44-.45.58s9.53-.53 18.28-12c9.82-12.86 23.79-51.21 5.25-82.18 0 0-8.02-15.52-26.15-23.96a44 44 0 0 0-3.98 4.05"/></svg>