<?xml version="1.0" encoding="UTF-8"?>
<!-- Generator: Adobe Illustrator 26.2.1, SVG Export Plug-In . SVG Version: 6.00 Build 0)  -->
<svg xmlns="http://www.w3.org/2000/svg" xmlns:xlink="http://www.w3.org/1999/xlink" version="1.1" id="Layer_1" x="0px" y="0px" viewBox="0 0 76 21" style="enable-background:new 0 0 76 21;" xml:space="preserve">
<style type="text/css">
	.st0{fill:#FFFFFF;}
	.st1{fill:#BCA979;}
</style>
<g id="Designs">
	<g id="Navigation-v1-logos" transform="translate(-558.000000, -133.000000)">
		<g id="William-hill" transform="translate(558.000000, 133.000000)">
			<path id="WH-logo" class="st0" d="M59.5,4.4h3.3v11.4h-3.3V4.4z M70.4,15.8H76v-3.5h-2.3V4.4h-3.3V15.8z M64,15.8h5.6v-3.5h-2.3     V4.4H64V15.8z M55,4.4v4h-1.6v-4h-3.3v11.4h3.3v-4.5H55v4.5h3.3V4.4H55z"></path>
			<path id="Shape" class="st1" d="M29.1,15.8c0.6,0,1.3-0.3,2.3-1.5c-0.3,0.9,0,1.5,0.8,1.5c0.8,0,1.5-0.9,2.3-1.8l3.1-3.8     c0.7-0.8,1.2-1.3,1.7-1.3c0.5,0,0.4,0.6-0.3,1.5c-0.6,0.7-4.3,5.3-4.3,5.3h1.5l3.8-4.9c1.1-1.5,1.9-1.9,2.3-1.9     c0.2,0,0.3,0.2,0.3,0.3c0,0.5-0.3,0.9-1.4,2.2l-3.4,4.3h1.5l3.8-4.9c1.4-1.8,1.9-1.9,2.2-1.9c0.2,0,0.3,0.2,0.3,0.3     c0,1.1-3.1,3.4-3.1,5.4c0,0.6,0.5,1.1,1.3,1.1c2.4,0,4.9-5.2,4.9-8c0-2.4-1.4-3.5-3-3.5c-2.3,0-3.1,1.3-3.1,2.2     c0,0.8,0.4,1.2,1.2,1.2c1.1,0,1.9-1.2,1.9-1.6c0-0.1,0-0.1-0.1-0.1c-0.4,1-1.1,1.3-1.6,1.3c-0.6,0-0.9-0.3-0.9-0.9     c0-0.6,0.7-1.8,2.5-1.8c1.7,0,2.7,1.1,2.7,3.2c0,3.7-2.5,7.6-4.3,7.6c-0.4,0-0.5-0.2-0.5-0.5c0-0.6,1-1.5,1.8-2.8     c0.6-1,1.3-1.9,1.3-2.7c0-0.7-0.3-1-0.8-1c-0.5,0-1.2,0.4-2.2,1.5c0.2-0.7,0.3-1.5-0.6-1.5c-0.5,0-1.3,0.3-2.5,1.7     c0.3-1.1,0-1.7-0.7-1.7s-1.2,0.5-1.8,1.2l-2.8,3.4c-1,1.2-1.9,2.5-2.5,2.5c-0.4,0-0.6-0.6,0.1-1.4l4.5-5.6h-1.6l-0.4,0.5     c-0.1-0.4-0.4-0.6-0.7-0.6c-1.2,0-2.7,0.8-3.8,1.9c-0.9,0.9-1.7,2.2-2.1,3.3c-0.6,0.7-1.6,1.9-2.3,1.9c-0.5,0-0.6-0.6,0.1-1.4     l4.5-5.6h-1.6c0,0-1.9,2.5-3.1,4.2l0,0c-0.3,0.4-1.3,1.7-1.7,2c-0.5,0.5-1,0.8-1.3,0.8c-0.5,0-0.6-0.6,0.1-1.4     c0.6-0.7,7-8.8,7-8.8h-1.6c0,0-4.1,5.4-5.7,7.4l0,0c-0.3,0.4-1.3,1.7-1.7,2c-0.5,0.5-1,0.8-1.3,0.8c-0.5,0-0.6-0.6,0.1-1.4     c0.6-0.7,7-8.8,7-8.8h-1.6c0,0-4.6,6.1-5.9,7.7l0,0l0,0l0,0l0,0c0,0,0,0,0,0.1c-0.4,0.6-1.7,2.4-2.6,2.4c-0.5,0-0.6-0.6,0.1-1.4     l4.5-5.6h-1.6c0,0-2.1,2.9-3.3,4.5s-0.7,2.8,0.4,2.8c0.9,0,1.6-0.7,2.1-1.3c-0.1,0.8,0.4,1.3,1,1.3c0.9,0,1.6-0.7,2.1-1.3     c-0.1,0.8,0.4,1.3,1,1.3c1,0,1.6-0.8,2.1-1.3c-0.1,0.8,0.3,1.3,1.1,1.3c0.8,0,1.6-0.8,2.1-1.3C28.3,15.1,28.4,15.8,29.1,15.8z      M32.3,10.1c1-1,1.6-1.2,1.8-1.2c0.2,0,0.3,0.1,0.3,0.4c0,0.8-2.8,4.3-3.5,5c-0.3,0.3-1,0.9-1.6,0.9C28.3,15.3,30.3,12,32.3,10.1     z M23.3,6.1c0.2-0.5-0.1-0.9-0.5-0.9c-0.4,0-0.9,0.4-1.1,0.9c-0.2,0.5,0.1,0.9,0.5,0.9C22.6,6.9,23.1,6.5,23.3,6.1z M31.6,6.9     c0.4,0,0.9-0.4,1.1-0.9c0.2-0.5-0.1-0.9-0.5-0.9c-0.4,0-0.9,0.4-1.1,0.9C31,6.5,31.2,6.9,31.6,6.9L31.6,6.9z M7.3,17.6     c-2.9,0-4.7-1.8-5.1-4.2c0.2,0,0.3,0.1,0.5,0.1c0.4,0,0.9-0.1,1.5-0.4c0.3,0.2,0.6,0.3,1,0.3c3,0,5.3-5.7,3.4-7.3     c1.6-0.7,3.3-1,4.5-0.3c-0.3,0.2-0.6,0.5-0.9,0.7c-2.3,2.3-3.4,7-5.1,8.8c-0.2-0.1-0.4-0.1-0.6-0.1c-0.3,0-0.7,0.2-0.7,0.4     c0,0.2,0.2,0.4,0.6,0.4c0.3,0,0.5-0.1,0.9-0.3c0.2,0,0.4,0,0.6,0c0.7,0,1.4-0.3,2.2-1.1c2-2,3.8-6.2,5-7.1     c-1.1,1.9-2.3,6.1-3.9,7.8c-0.2-0.1-0.4-0.1-0.6-0.1c-0.3,0-0.7,0.2-0.7,0.4s0.2,0.4,0.6,0.4c0.3,0,0.5-0.1,0.9-0.3     c0.2,0.1,0.4,0.1,0.7,0.1c0.6,0,1.3-0.3,1.9-0.9c2.1-2.1,4.9-6.5,7.2-8.8c0.8-0.8,2.3-2,4.3-2c1.8,0,3,1.1,3,1.1     c0,0,0-0.1-0.1-0.2c-1-1-2.1-1.4-3.2-1.4s-2.8,0.4-5,2.5c-2.3,2.3-4.9,6.9-6.6,8.6c-0.7,0.7-1.2,0.9-1.6,0.9c-0.1,0-0.2,0-0.3,0     c0.3-0.2,0.6-0.5,1-0.9c2.8-2.8,3.5-7.9,5-9.5c-0.1-0.1-0.9,0.1-2.2,1.4c-2.2,2.2-3.4,5.9-5.5,8c-0.7,0.7-1.4,0.9-1.8,0.9     c-0.1,0-0.2,0-0.3,0c0.3-0.2,0.6-0.5,1-0.9c1.6-1.6,3.3-6.3,5.1-8.6C15.5,6,15.5,5,14.8,5c-0.4,0-0.9,0.2-1.4,0.6     c-0.5-0.5-1.4-0.8-2.6-0.8c-1.3,0-2.5,0.4-3.6,0.9l0,0c-2.4,0-5.6,2.5-5.6,6.7c0,0.1,0,0.2,0,0.3c-0.6-0.4-1.1-1.1-1.1-2.2     c0-3.4,5.2-7.4,11.2-7.4c2.4,0,4.9,0.8,6.4,1.9l0.1-0.1C17.3,4,15,2.5,11,2.5c-5.2,0-11,3.1-11,8c0,1.3,0.8,2.2,1.6,2.7     c0.4,3,2.9,4.8,5.4,4.8h68.9v-0.4L7.3,17.6L7.3,17.6z M8.1,6.3c2.1,1.3-0.2,6.7-2.8,6.7c-0.3,0-0.5-0.1-0.7-0.2     c0.9-0.6,1.7-1.6,2.3-3.6l-0.1,0c-0.4,1.3-1.3,2.7-2.5,3.4c-0.3-0.4-0.4-0.9-0.4-1.5C3.9,9.5,5.8,7.5,8.1,6.3L8.1,6.3z M2.1,12.2     c0-2.6,2.3-5.8,4.5-6.1C4.7,7.4,3.4,9.3,3.4,11c0,0.7,0.2,1.4,0.5,1.8c-0.4,0.2-0.7,0.3-1.1,0.3c-0.2,0-0.4,0-0.6-0.1     C2.1,12.8,2.1,12.5,2.1,12.2z"></path>
		</g>
	</g>
</g>
</svg>
