<svg id="Layer_1" data-name="Layer 1" xmlns="http://www.w3.org/2000/svg" viewBox="0 0 400 114"><defs><style>.cls-1{fill:#e4187c;}.cls-1,.cls-7,.cls-8{stroke:#fff;stroke-miterlimit:10;}.cls-2,.cls-7{font-size:25px;font-family:Montserrat-Regular, Montserrat;letter-spacing:0.39em;}.cls-2,.cls-5{fill:#fff;}.cls-3{letter-spacing:0.36em;}.cls-4{letter-spacing:0.39em;}.cls-5{font-size:22px;font-family:Montserrat-Light, Montserrat;font-weight:300;letter-spacing:0.05em;}.cls-6{letter-spacing:0.05em;}.cls-7,.cls-8{fill:#35a8e0;}</style></defs><polygon class="cls-1" points="79.72 42.37 79.72 18.54 59.09 6.62 38.45 18.54 38.45 42.37 59.09 54.29 79.72 42.37"/><path class="cls-1" d="M59.09,30.46,38.45,18.54Z"/><path class="cls-1" d="M79.73,18.54,59.09,30.46Z"/><path class="cls-1" d="M59.09,54.29v0Z"/><polygon class="cls-1" points="100.36 77.53 100.36 53.7 79.72 41.78 59.09 53.7 59.09 77.53 79.72 89.44 100.36 77.53"/><path class="cls-1" d="M79.73,65.61,59.09,53.7Z"/><path class="cls-1" d="M100.37,53.7,79.73,65.61Z"/><path class="cls-1" d="M79.73,89.44v0Z"/><polygon class="cls-1" points="100.36 54.29 100.36 30.46 79.72 18.54 59.09 30.46 59.09 54.29 79.72 66.21 100.36 54.29"/><path class="cls-1" d="M79.73,42.37,59.09,30.46Z"/><path class="cls-1" d="M100.36,30.46,79.73,42.37Z"/><path class="cls-1" d="M79.73,66.21v0Z"/><polygon class="cls-1" points="59.09 77.53 59.09 53.7 38.45 41.78 17.81 53.7 17.81 77.53 38.45 89.44 59.09 77.53"/><path class="cls-1" d="M38.45,65.61,17.81,53.7Z"/><path class="cls-1" d="M59.09,53.7,38.45,65.61Z"/><path class="cls-1" d="M38.45,89.44v0Z"/><polygon class="cls-1" points="59.09 54.29 59.09 30.46 38.45 18.54 17.81 30.46 17.81 54.29 38.45 66.21 59.09 54.29"/><path class="cls-1" d="M38.45,42.37,17.81,30.46Z"/><path class="cls-1" d="M59.09,30.46,38.45,42.37Z"/><path class="cls-1" d="M38.45,66.21v0Z"/><polygon class="cls-1" points="79.72 89.46 79.72 65.63 59.09 53.71 38.45 65.63 38.45 89.46 59.09 101.38 79.72 89.46"/><path class="cls-1" d="M59.09,77.54,38.45,65.63Z"/><path class="cls-1" d="M79.73,65.63,59.09,77.54Z"/><path class="cls-1" d="M59.09,101.38v0Z"/><text class="cls-2" transform="translate(119.23 53.8)">L<tspan class="cls-3" x="23.1" y="0">O</tspan><tspan class="cls-4" x="52.4" y="0">GIC</tspan></text><text class="cls-2" transform="translate(262.19 53.7)">R<tspan class="cls-3" x="27.83" y="0">O</tspan><tspan x="57.13" y="0">OM</tspan></text><text class="cls-5" transform="translate(119.23 77.53)">Learn UI Archi<tspan class="cls-6" x="169.22" y="0">t</tspan><tspan x="178.79" y="0">ecture</tspan></text><text class="cls-7" transform="translate(246.28 52.28)">•</text><polygon class="cls-8" points="59.07 30.9 38.44 42.81 38.44 66.07 59.07 54.15 59.07 30.9"/><polygon class="cls-8" points="79.21 66.36 79.21 42.52 59.07 30.9 59.07 54.73 79.21 66.36"/><polygon class="cls-8" points="79.71 66.05 59.07 54.14 38.94 65.76 59.58 77.68 79.71 66.05"/></svg>