<svg id="Layer_1" data-name="Layer 1" xmlns="http://www.w3.org/2000/svg" viewBox="0 0 400 114"><defs><style>.cls-1{fill:#e4187c;}.cls-1,.cls-7,.cls-8{stroke:#fff;stroke-miterlimit:10;}.cls-2,.cls-7{font-size:25px;font-family:Montserrat-Regular, Montserrat;letter-spacing:0.39em;}.cls-3{letter-spacing:0.36em;}.cls-4{letter-spacing:0.39em;}.cls-5{font-size:22px;font-family:Montserrat-Light, Montserrat;font-weight:300;letter-spacing:0.05em;}.cls-6{letter-spacing:0.05em;}.cls-7,.cls-8{fill:#35a8e0;}</style></defs><polygon class="cls-1" points="79.72 45.37 79.72 21.54 59.09 9.62 38.45 21.54 38.45 45.37 59.09 57.29 79.72 45.37"/><path class="cls-1" d="M59.09,33.46,38.45,21.54Z"/><path class="cls-1" d="M79.73,21.54,59.09,33.46Z"/><path class="cls-1" d="M59.09,57.29v0Z"/><polygon class="cls-1" points="100.36 80.53 100.36 56.7 79.72 44.78 59.09 56.7 59.09 80.53 79.72 92.44 100.36 80.53"/><path class="cls-1" d="M79.73,68.61,59.09,56.7Z"/><path class="cls-1" d="M100.37,56.7,79.73,68.61Z"/><path class="cls-1" d="M79.73,92.44v0Z"/><polygon class="cls-1" points="100.36 57.29 100.36 33.46 79.72 21.54 59.09 33.46 59.09 57.29 79.72 69.21 100.36 57.29"/><path class="cls-1" d="M79.73,45.37,59.09,33.46Z"/><path class="cls-1" d="M100.37,33.46,79.73,45.37Z"/><path class="cls-1" d="M79.73,69.21v0Z"/><polygon class="cls-1" points="59.09 80.53 59.09 56.7 38.45 44.78 17.81 56.7 17.81 80.53 38.45 92.44 59.09 80.53"/><path class="cls-1" d="M38.45,68.61,17.81,56.7Z"/><path class="cls-1" d="M59.09,56.7,38.45,68.61Z"/><path class="cls-1" d="M38.45,92.44v0Z"/><polygon class="cls-1" points="59.09 57.29 59.09 33.46 38.45 21.54 17.81 33.46 17.81 57.29 38.45 69.21 59.09 57.29"/><path class="cls-1" d="M38.45,45.37,17.81,33.46Z"/><path class="cls-1" d="M59.09,33.46,38.45,45.37Z"/><path class="cls-1" d="M38.45,69.21v0Z"/><polygon class="cls-1" points="79.72 92.46 79.72 68.63 59.09 56.71 38.45 68.63 38.45 92.46 59.09 104.38 79.72 92.46"/><path class="cls-1" d="M59.09,80.54,38.45,68.63Z"/><path class="cls-1" d="M79.73,68.63,59.09,80.54Z"/><path class="cls-1" d="M59.09,104.38v0Z"/><text class="cls-2" transform="translate(119.23 56.8)">L<tspan class="cls-3" x="23.1" y="0">O</tspan><tspan class="cls-4" x="52.4" y="0">GIC</tspan></text><text class="cls-2" transform="translate(262.19 56.7)">R<tspan class="cls-3" x="27.83" y="0">O</tspan><tspan x="57.13" y="0">OM</tspan></text><text class="cls-5" transform="translate(119.23 80.53)">Learn UI Archi<tspan class="cls-6" x="169.22" y="0">t</tspan><tspan x="178.79" y="0">ecture</tspan></text><text class="cls-7" transform="translate(246.28 55.28)">•</text><polygon class="cls-8" points="59.07 33.9 38.44 45.81 38.44 69.07 59.07 57.15 59.07 33.9"/><polygon class="cls-8" points="79.21 69.36 79.21 45.52 59.07 33.9 59.07 57.73 79.21 69.36"/><polygon class="cls-8" points="79.71 69.05 59.07 57.14 38.94 68.76 59.58 80.68 79.71 69.05"/></svg>