<svg id="Layer_1" data-name="Layer 1" xmlns="http://www.w3.org/2000/svg" xmlns:xlink="http://www.w3.org/1999/xlink" viewBox="0 0 300 150"><defs><style>.cls-1{fill:url(#linear-gradient);}.cls-2{fill:url(#linear-gradient-2);}.cls-3{fill:url(#linear-gradient-3);}.cls-4{fill:url(#linear-gradient-4);}</style><linearGradient id="linear-gradient" x1="88.5" y1="92.97" x2="220" y2="116.97" gradientUnits="userSpaceOnUse"><stop offset="0" stop-color="#673ab7"/><stop offset="0.29" stop-color="#953099"/><stop offset="0.7" stop-color="#d12372"/><stop offset="0.9" stop-color="#e91e63"/></linearGradient><linearGradient id="linear-gradient-2" x1="92.56" y1="70.74" x2="224.06" y2="94.74" xlink:href="#linear-gradient"/><linearGradient id="linear-gradient-3" x1="96.79" y1="47.55" x2="228.29" y2="71.55" xlink:href="#linear-gradient"/><linearGradient id="linear-gradient-4" x1="94.58" y1="59.66" x2="226.08" y2="83.66" gradientUnits="userSpaceOnUse"><stop offset="0" stop-color="#673ab7"/><stop offset="0.32" stop-color="#953099"/><stop offset="0.78" stop-color="#d12372"/><stop offset="1" stop-color="#e91e63"/></linearGradient></defs><title>web-logo</title><rect class="cls-1" x="82.2" y="87.97" width="23.73" height="12.05" rx="6.02" ry="6.02"/><path class="cls-2" d="M103.78,69.9a6,6,0,0,0-6-6H78.17a6,6,0,1,0,0,12H97.76A6,6,0,0,0,103.78,69.9Z"/><rect class="cls-3" x="78.82" y="39.78" width="16.82" height="12.05" rx="6.02" ry="6.02"/><path class="cls-4" d="M227.08,79.15,207.47,51.46a10.3,10.3,0,0,0-8.41-4.35H176.83V38.65A10.91,10.91,0,0,0,168.29,28v-.27h-64a6,6,0,1,0,0,12h32.3a6,6,0,0,1,0,12H113.49a6,6,0,0,0,0,12.05h17.1a6,6,0,1,1,0,12H113.34a6,6,0,0,0,0,12h21.51a6,6,0,0,1,6,6h0a6,6,0,0,1-6,6h-1.24a6,6,0,0,0,0,12h54.18a11.12,11.12,0,0,0,22.16,0h13.68a4.23,4.23,0,0,0,4.23-4.23V81.59A4.19,4.19,0,0,0,227.08,79.15ZM210,77.3a1.56,1.56,0,0,1-1.56,1.56H184.62a2.5,2.5,0,0,1-2.5-2.5V58a1.41,1.41,0,0,1,1.4-1.41h13.35a3.27,3.27,0,0,1,2.7,1.42l9.84,14.21a3.29,3.29,0,0,1,.59,1.87Z"/></svg>